<svg width="96" height="84" viewBox="0 0 96 84" fill="none" xmlns="http://www.w3.org/2000/svg">
<path d="M87.0603 28.9313C80.9784 27.3137 77.3719 21.0672 78.9779 14.9936C80.5965 8.91187 76.9765 2.67318 70.8945 1.05554C64.8126 -0.562102 58.5735 3.05817 56.9548 9.13986C55.3359 15.221 49.0883 18.828 43.0142 17.2239C36.9322 15.6063 30.6931 19.2266 29.0742 25.3077C27.4555 31.3893 21.208 34.9964 15.1339 33.3923C9.05191 31.7747 2.81338 35.3946 1.19383 41.476C-0.424802 47.5577 3.19489 53.7958 9.27659 55.4144C15.3585 57.0321 18.9646 63.278 17.3596 69.3518C15.7404 75.4339 19.3607 81.6716 25.4424 83.2902C31.5243 84.9079 37.7635 81.2876 39.3821 75.2059C41.0013 69.1239 47.2488 65.5168 53.3227 67.1218C59.4047 68.7395 65.6438 65.1192 67.2624 59.0375C68.882 52.9561 75.1295 49.349 81.203 50.9534C87.285 52.5711 93.5241 48.9508 95.1431 42.8697C96.7545 36.7741 93.1423 30.549 87.0603 28.9313Z" fill="#1A2C54" fill-opacity="0.05"/>
</svg>
