<svg width="52" height="52" viewBox="0 0 52 52" fill="none" xmlns="http://www.w3.org/2000/svg">
<g clip-path="url(#clip0_13_140)">
<path d="M26.8779 13.4289C28.4227 15.9526 31.4925 17.1033 34.2951 16.3816C34.1026 19.2584 35.8618 21.8988 38.4674 22.9649C36.6916 25.1359 36.4679 28.2478 37.9408 30.6456C35.2037 31.3468 33.0822 33.7356 32.8909 36.6308C30.1952 35.524 26.9911 36.2785 25.1221 38.5711C23.5772 36.0473 20.5074 34.8967 17.7047 35.6184C17.8971 32.7419 16.1385 30.1011 13.5326 29.035C15.308 26.8641 15.5323 23.7524 14.0591 21.3544C16.7963 20.6533 18.9178 18.2644 19.1091 15.3692C21.8049 16.4762 25.0089 15.7213 26.8779 13.4289Z" stroke="#A40670" stroke-width="10"/>
</g>
<defs>
<clipPath id="clip0_13_140">
<rect width="52" height="52" fill="white"/>
</clipPath>
</defs>
</svg>
