<svg width="15" height="24" viewBox="0 0 15 24" fill="none" xmlns="http://www.w3.org/2000/svg">
<path d="M1.53943 12.1025L7.67143 2.90547C8.22043 2.08247 9.50343 2.47047 9.50343 3.46047V9.65747H12.6354C12.8165 9.65745 12.9941 9.70657 13.1494 9.7996C13.3047 9.89263 13.4319 10.0261 13.5173 10.1857C13.6027 10.3453 13.6432 10.5252 13.6344 10.706C13.6256 10.8868 13.5679 11.0619 13.4674 11.2125L7.33543 20.4095C6.78643 21.2325 5.50343 20.8445 5.50343 19.8545V13.6575H2.37243C2.1913 13.6577 2.01352 13.6087 1.85806 13.5157C1.70261 13.4228 1.57532 13.2893 1.48979 13.1297C1.40426 12.97 1.3637 12.7901 1.37244 12.6092C1.38119 12.4283 1.4389 12.2531 1.53943 12.1025Z" fill="white"/>
</svg>
