<svg width="230" height="310" viewBox="0 0 230 310" fill="none" xmlns="http://www.w3.org/2000/svg">
<g clip-path="url(#clip0_8_155)">
<path d="M139.213 95.3322C157.856 109.904 178.522 119.51 200.076 123.526L200.465 125.496C183.202 143.295 168.768 165.366 157.92 190.409C147.412 214.667 140.456 241.275 137.357 268.817C124.533 246.93 108.701 228.413 90.6437 214.297C72.0006 199.723 51.3336 190.114 29.7774 186.098L29.3918 184.142C46.6526 166.342 61.0839 144.272 71.9302 119.229C82.4389 94.9657 89.3934 68.3523 92.4909 40.8051C105.317 62.6965 121.153 81.2157 139.213 95.3322Z" stroke="#1A2C54" stroke-width="11.75"/>
</g>
<defs>
<clipPath id="clip0_8_155">
<rect width="192.891" height="248.838" fill="white" transform="matrix(0.942176 -0.33512 0.193374 0.981125 0 65.0693)"/>
</clipPath>
</defs>
</svg>
