<svg width="136" height="136" viewBox="0 0 136 136" fill="none" xmlns="http://www.w3.org/2000/svg">
<g clip-path="url(#clip0_13_133)">
<path d="M120.821 80.6994C110.637 72.8987 102.164 63.0897 95.9254 51.8802C89.6873 40.6707 85.8175 28.2996 84.556 15.5334L80.6994 14.4362C72.8987 24.6203 63.0897 33.0939 51.8802 39.3321C40.6707 45.5702 28.2996 49.44 15.5334 50.7015L14.4381 54.5515C24.6226 62.3532 33.0963 72.1633 39.3342 83.3739C45.572 94.5846 49.4411 106.957 50.7015 119.724L54.5515 120.819C62.3532 110.635 72.1633 102.161 83.3739 95.9233C94.5846 89.6855 106.957 85.8164 119.724 84.556L120.821 80.6994Z" fill="#A40670" fill-opacity="0.05"/>
</g>
<defs>
<clipPath id="clip0_13_133">
<rect width="109.478" height="109.478" fill="white" transform="translate(29.9584) rotate(15.8815)"/>
</clipPath>
</defs>
</svg>
